<?xml version="1.0" encoding="utf-8"?>
<!-- Generator: Adobe Illustrator 25.4.1, SVG Export Plug-In . SVG Version: 6.00 Build 0)  -->
<svg version="1.1" id="Layer_1" xmlns="http://www.w3.org/2000/svg" xmlns:xlink="http://www.w3.org/1999/xlink" x="0px" y="0px"
	 width="523px" height="420.7px" viewBox="0 0 523 420.7" style="enable-background:new 0 0 523 420.7;" xml:space="preserve">
<style type="text/css">
	.st0{fill:url(#Path_7378_00000103255581456400311080000017932898716960039593_);}
	.st1{fill:none;stroke:#BBB4F8;stroke-width:6.7936;stroke-linecap:round;stroke-miterlimit:8.6797;}
	.st2{fill:#2B478B;}
	.st3{fill:#FDC854;}
	.st4{fill:#F89F4F;}
	.st5{fill:#DCEAFF;}
	.st6{fill:#FFFFFF;}
	.st7{fill:#FFB89F;}
	.st8{fill:#ED7D2B;}
	.st9{fill:#F6A19E;}
	.st10{fill:#163560;}
	.st11{fill:none;stroke:#E1EEF7;stroke-width:0.4713;stroke-miterlimit:8.6797;}
	.st12{fill:none;stroke:#E1EEF7;stroke-width:0.4409;stroke-miterlimit:8.6797;}
	.st13{fill:#1C468A;}
	.st14{fill:#FF9900;}
	.st15{fill:#FFAD94;}
	.st16{fill:none;stroke:#ED7D2B;stroke-width:0.868;stroke-miterlimit:8.6797;}
	.st17{opacity:0.3;fill:#FFFFFF;enable-background:new    ;}
	.st18{opacity:0.3;fill:#DCEAFF;enable-background:new    ;}
	.st19{fill:#A8C1E8;}
	.st20{fill:#EDF2FC;}
	.st21{fill:#A9CCED;}
	.st22{fill:#E04403;}
	.st23{fill:none;stroke:#A8C1E8;stroke-width:4.0152;stroke-linecap:round;stroke-miterlimit:8.6797;}
	.st24{enable-background:new    ;}
	.st25{fill:none;stroke:#579FC8;stroke-width:0.868;stroke-miterlimit:3.4719;stroke-dasharray:4.3398,1.7359;}
	.st26{fill:#79A3D9;fill-opacity:0;}
	.st27{fill:#DCEBFF;fill-opacity:0;}
	.st28{fill:#A9CCED;fill-opacity:0;}
	.st29{opacity:0.8;fill:#02111B;enable-background:new    ;}
</style>
<g id="Group_3772" transform="translate(-694.235 -135.934)">
	
		<linearGradient id="Path_7378_00000099627907350449207690000010305419136022638242_" gradientUnits="userSpaceOnUse" x1="393.3718" y1="439.3108" x2="394.7867" y2="441.0218" gradientTransform="matrix(478.1688 0 0 -417.5869 -187615.7031 184378.2031)">
		<stop  offset="0" style="stop-color:#F05A28"/>
		<stop  offset="7.000001e-03" style="stop-color:#F05C2A"/>
		<stop  offset="0.154" style="stop-color:#F48662"/>
		<stop  offset="0.303" style="stop-color:#F7AB92"/>
		<stop  offset="0.449" style="stop-color:#FAC9B9"/>
		<stop  offset="0.592" style="stop-color:#FCE0D7"/>
		<stop  offset="0.732" style="stop-color:#FDF1ED"/>
		<stop  offset="0.867" style="stop-color:#FEFBFA"/>
		<stop  offset="0.992" style="stop-color:#FFFFFF"/>
	</linearGradient>
	<path id="Path_7378" style="fill:url(#Path_7378_00000099627907350449207690000010305419136022638242_);" d="M1146.3,553.5H768.4
		c-55.3-77.6-56-114.1-44.4-132.8c15.6-25.3,53.6-18.6,69.3-50.4c14.8-30-11.5-51.6,3.8-79.3c15.7-28.6,48-14.2,75.6-44.1
		c31.9-34.6,8.6-75.7,40.3-99.5c19.8-14.9,48.4-13.3,66.7-6.3c26.3,10.1,24.3,28.7,51.6,51.6c45.1,38,87.8,18.6,102,47.9
		c12.4,25.5-17,46.7-2.2,79.3c8.3,18.4,20.6,17.1,37.6,39.9c18.6,24.9,24.7,53.5,26.5,67.1C1203.6,491.7,1155.5,544.2,1146.3,553.5z
		"/>
	<path id="Path_7380" class="st2" d="M1075.2,251.9L1075.2,251.9v-28.2l0,0c2.5,0,4.5,2,4.5,4.5c0,0,0,0,0,0v19.1
		C1079.8,249.9,1077.8,251.9,1075.2,251.9z"/>
	<path id="Path_7381" class="st2" d="M1075.2,288.6L1075.2,288.6v-28.2l0,0c2.5,0,4.5,2,4.5,4.5c0,0,0,0,0,0v19.1
		C1079.8,286.6,1077.8,288.6,1075.2,288.6C1075.2,288.6,1075.2,288.6,1075.2,288.6z"/>
	<g id="Group_3739">
		<g id="Group_3732">
			<path id="Rectangle_3920" class="st3" d="M1049.7,538.1h100.2c1.6,0,2.8,1.3,2.8,2.8v9.5c0,1.6-1.3,2.8-2.8,2.8h-100.2
				c-1.6,0-2.8-1.3-2.8-2.8v-9.5C1046.9,539.4,1048.2,538.1,1049.7,538.1z"/>
			<path id="Path_7382" class="st4" d="M1046.9,550.3c0,1.6,1.3,2.9,2.9,2.9h100.1c1.6,0,2.9-1.3,2.9-2.9v-1.6h-105.8V550.3z"/>
		</g>
		<g id="Group_3733">
			<path id="Rectangle_3921" class="st3" d="M1051,523h100.2c1.6,0,2.8,1.3,2.8,2.8v9.5c0,1.6-1.3,2.8-2.8,2.8H1051
				c-1.6,0-2.8-1.3-2.8-2.8v-9.5C1048.2,524.2,1049.5,523,1051,523z"/>
			<path id="Path_7383" class="st4" d="M1048.2,535.2c0,1.6,1.3,2.9,2.9,2.9h100.1c1.6,0,2.9-1.3,2.9-2.9v-1.6h-105.8V535.2z"/>
		</g>
		<g id="Group_3734">
			<path id="Rectangle_3922" class="st3" d="M1053.3,507.9h100.2c1.6,0,2.8,1.3,2.8,2.8v9.5c0,1.6-1.3,2.8-2.8,2.8h-100.2
				c-1.6,0-2.8-1.3-2.8-2.8v-9.5C1050.5,509.1,1051.7,507.9,1053.3,507.9z"/>
			<path id="Path_7384" class="st4" d="M1050.5,520.1c0,1.6,1.3,2.9,2.9,2.9c0,0,0,0,0,0h100.1c1.6,0,2.9-1.3,2.9-2.9c0,0,0,0,0,0
				v-1.6h-105.8V520.1z"/>
		</g>
		<g id="Group_3735">
			<path id="Rectangle_3923" class="st3" d="M1047.5,492.7h100.2c1.6,0,2.8,1.3,2.8,2.8v9.5c0,1.6-1.3,2.8-2.8,2.8h-100.2
				c-1.6,0-2.8-1.3-2.8-2.8v-9.5C1044.7,494,1045.9,492.7,1047.5,492.7z"/>
			<path id="Path_7385" class="st4" d="M1044.7,505c0,1.6,1.3,2.9,2.9,2.9c0,0,0,0,0,0h100.1c1.6,0,2.9-1.3,2.9-2.9c0,0,0,0,0,0
				v-1.6h-105.8V505z"/>
		</g>
		<g id="Group_3736">
			<path id="Rectangle_3924" class="st3" d="M1053.3,477.6h100.2c1.6,0,2.8,1.3,2.8,2.8v9.5c0,1.6-1.3,2.8-2.8,2.8h-100.2
				c-1.6,0-2.8-1.3-2.8-2.8v-9.5C1050.5,478.9,1051.7,477.6,1053.3,477.6z"/>
		</g>
		<path id="Path_7386" class="st4" d="M1050.5,489.8c0,1.6,1.3,2.9,2.9,2.9c0,0,0,0,0,0h100.1c1.6,0,2.9-1.3,2.9-2.9c0,0,0,0,0,0
			v-1.6h-105.8V489.8z"/>
		<g id="Group_3737">
			<path id="Rectangle_3925" class="st3" d="M1049.3,462.5h100.2c1.6,0,2.8,1.3,2.8,2.8v9.5c0,1.6-1.3,2.8-2.8,2.8h-100.2
				c-1.6,0-2.8-1.3-2.8-2.8v-9.5C1046.5,463.8,1047.8,462.5,1049.3,462.5z"/>
			<path id="Path_7387" class="st4" d="M1046.5,474.7c0,1.6,1.3,2.9,2.9,2.9c0,0,0,0,0,0h100.1c1.6,0,2.9-1.3,2.9-2.9v-1.6h-105.8
				V474.7z"/>
		</g>
	</g>
	<path id="Rectangle_3926" class="st2" d="M1058.3,553.8H883.6c-10.5,0-19-8.5-19-19V192.4c0-10.5,8.5-19,19-19h174.6
		c10.5,0,19,8.5,19,19v342.4C1077.3,545.3,1068.8,553.8,1058.3,553.8z"/>
	<rect id="Rectangle_3927" x="871.2" y="206.9" class="st5" width="195.9" height="312.3"/>
	<circle id="Ellipse_369" class="st6" cx="969.2" cy="191.5" r="6.1"/>
	<g id="Group_3742">
		<g id="Group_3741">
			<path id="Path_7389" class="st7" d="M757.7,345.7l-1.2-0.8c-0.4-0.3-0.9-0.6-1.4-0.8c-1.9,0.5-3.9,0.2-5.6-0.9
				c-0.6-0.4-1.2-1-1.8-1.5c-0.3-0.2-0.5-0.5-0.7-0.8c-0.2-0.3-0.3-0.7-0.2-1c0.2-0.5,0.5-0.9,0.8-1.2c0.4-0.3,0.5-0.9,0.3-1.3
				c-0.2-0.2-0.5-0.4-0.8-0.5c-1.1-0.5-1.9-1.5-2.2-2.7c3.1,0.6,6.1,1.8,8.9,3.4c0.5-0.5,0.7-1.2,0.5-1.9c-0.1-0.4-0.3-0.8-0.5-1.2
				c-0.2-0.4-0.3-0.8-0.3-1.3c0.1-0.5,0.5-0.8,0.9-0.8c0.5,0.1,0.8,0.6,1,1l1,2.3c0.3,0.7,0.6,1.4,0.7,2.1c0,0.4,0.1,0.7,0.2,1.1
				c0.2,0.3,0.4,0.5,0.7,0.6l2.2,1.3C759.5,342.4,758.6,344.1,757.7,345.7z"/>
			<path id="Path_7390" class="st8" d="M855.5,342.8c0,0-21.9,20.5-38.4,28.4c-15.8,7.6-59.7-25.6-59.7-25.6l2.9-5.3
				c0,0,25.3,5.7,47.7,16.7c0,0,18.6-13.2,33.5-28.8L855.5,342.8z"/>
			
				<rect id="Rectangle_3928" x="785.8" y="544.2" transform="matrix(0.3559 -0.9345 0.9345 0.3559 -4.751 1087.4956)" class="st9" width="1.4" height="5.9"/>
			<path id="Path_7391" class="st10" d="M789.5,547.6c0,0,1.5,3.2-1.8,4.7l-14.3-5.4c0.1-1.1,0.7-2.2,1.6-2.9
				c0.8-0.6,1.7-0.9,2.6-0.9l6.8,2.6C785.8,547.1,787.7,547.8,789.5,547.6z"/>
			<path id="Path_7392" class="st10" d="M777.7,543.1c-2.2-0.9-4.7,0.3-5.6,2.5l-0.3,0.7l2.2,0.8c0.2-0.7,0.6-1.4,1-2
				C775.8,544.1,776.7,543.5,777.7,543.1z"/>
			<path id="Path_7393" class="st7" d="M786.1,543.4l-0.9,2.8l3.7,1.3l1.3-2.7L786.1,543.4z"/>
			<path id="Path_7394" class="st11" d="M781.4,544.6l-1.1,0.9"/>
			<path id="Path_7395" class="st11" d="M782.7,545.2l-1.1,1"/>
			<path id="Path_7396" class="st10" d="M850.8,398c0,0,0.1,19.4-3,26.3s-22.2,38.3-22.2,38.3l-35.1,83.5l-5.2-2l11.2-76.4
				c0,0,19.9-62.7,27.3-75.2S850.8,398,850.8,398z"/>
			<rect id="Rectangle_3929" x="833.7" y="547.8" class="st9" width="5.5" height="1.3"/>
			<path id="Path_7397" class="st10" d="M839.2,547.8c1.3,1.2,1.4,3.2,0.2,4.5c-0.1,0.1-0.1,0.1-0.2,0.2l-14.3,0
				c-0.2-1-0.1-2.1,0.5-3c0.5-0.8,1.2-1.3,2-1.7l6.8,0C835.8,548.7,837.6,548.7,839.2,547.8z"/>
			<path id="Path_7398" class="st10" d="M827.4,547.8c-2.2,0-4,1.8-4.1,4v0.7h2.2c-0.1-0.7,0-1.4,0.2-2.1
				C826,549.4,826.6,548.5,827.4,547.8z"/>
			<path id="Path_7399" class="st7" d="M833.7,543.6l1.1,4.5l3.9-0.2l-0.7-3.5L833.7,543.6z"/>
			<path id="Path_7400" class="st12" d="M831.1,548l-0.7,1.1"/>
			<path id="Path_7401" class="st12" d="M832.4,548.1l-0.6,1.2"/>
			<path id="Path_7402" class="st13" d="M854.8,400.9c0,0,1.8,5.5-0.2,15.4c-2.9,14.2-28.6,50.6-28.6,50.6l13.3,77.8l-6.8,1.8
				l-27-71.9c-2.2-5.8-2.5-12.2-0.9-18.2c4.7-17.7,14.8-54.6,18.4-58.2l1.1-10.5L854.8,400.9z"/>
			<g id="Group_3740">
				<path id="Path_7403" class="st10" d="M753.8,343.9c1.4,0.1,2.5-1,2.6-2.3c0-0.5-0.1-0.9-0.3-1.3l-8.8-16.7
					c-0.6-1.2-2.1-1.7-3.3-1.1s-1.7,2.1-1.1,3.3c0,0,0,0,0,0l8.8,16.7C752.2,343.3,753,343.8,753.8,343.9z"/>
			</g>
			<path id="Path_7404" class="st7" d="M747,330.6c0.9,0.9,1.7,1.8,2.4,2.7c2.9,3.8,3.9,7.1,4.9,6.9c1.2-0.2,0.7-5.1,2-5.3
				c1-0.2,2.2,2.7,2.7,4c0.6,1.7,1.2,3.5,0.6,5.3l1.6,1.6l-4.1,3.8l-2.6-2.7c-6.7-2-10.9-8.7-9.9-15.6c0.1-0.8,0.8-1.4,1.6-1.3
				C746.5,330.2,746.8,330.4,747,330.6z"/>
			<path id="Path_7405" class="st7" d="M834.5,294.9c-0.5,4.4,1.2,8.3,3.8,8.6c2.6,0.3,5.2-3,5.7-7.4c0.5-4.4-1.2-8.3-3.8-8.6
				C837.6,287.2,835,290.5,834.5,294.9z"/>
			<path id="Path_7406" class="st14" d="M844.8,316.5c3.1-0.7,6.1,1.1,6.9,4.2c0.2,0.6,0.2,1.3,0.1,1.9c-0.1,1.3-0.3,2.7-0.5,4
				c-3.6,24.6-19.2,42.6-31.9,53.7c-5.9,5.2-14.4,5.8-21,1.6c-4.1-2.6-8.2-5.4-12.5-8.3c-11.6-8.1-21.5-15.3-30.6-23.2
				c0.6-0.7,1.1-1.4,1.7-2.2c1.2-1.5,2.4-2.9,3.5-4.4c7.3,4.1,14.9,8.3,22.7,12.4c8.8,4.6,17.5,8.9,25.9,12.9
				c5.5-10.8,9.5-19,11.7-23.5c0,0,9.9-24.3,21.8-28.6C843.5,316.9,844.2,316.7,844.8,316.5z"/>
			<path id="Path_7407" class="st7" d="M844.4,313.7c0.5-0.6-7.3-12.2-7.3-12.2l-10.7,5.5l4.5,14.9
				C830.9,321.9,837.4,321.1,844.4,313.7z"/>
			<path id="Path_7408" class="st15" d="M839,304.7c-0.2,0.5-0.4,0.9-0.6,1.4c-2.1,3.9-5.6,6.8-9.7,8.3l-2.2-7.4l10.7-5.5
				C837.1,301.4,837.9,302.9,839,304.7z"/>
			<path id="Path_7409" class="st7" d="M828.5,281.5c-3.7,0.9-7,3.1-9.2,6.2c-4.2,6.3-3.9,17.4,2.7,21.1c6.3,3.6,15.6-1.2,19.1-8
				c3.1-6,2.3-14.8-2.9-18.3C834.6,280.1,830,281.2,828.5,281.5z"/>
			<path id="Path_7410" class="st14" d="M844.3,312.8c0,0,27.9,3.7,18.1,95.7l0,0c-14,1.8-28.2,0.4-41.7-4l-7.4-2.3l5.3-54.3
				C819.9,332.3,829.8,318.7,844.3,312.8L844.3,312.8z"/>
			<path id="Path_7411" class="st2" d="M835,299.3c-2.3-2.1,1.3-6.5-1.3-10c-2.8-3.8-8.7-1-13.7-4.6c-2.3-1.7-2.9-2.7-3.4-10.1
				c6.9-3.5,8.9-3.6,11.3-2.4c2.9,1.5,2.8,1.9,6.4,3.8c4.5,2.3,7.1,0,10.7,1.8c4.4,2.2,7.8,9.2,5.4,15
				C847.5,299.8,837.7,301.9,835,299.3z"/>
			<path id="Path_7412" class="st7" d="M836.8,298c0.3-1.7,2-2.9,3.7-2.6c1.7,0.3,2.9,2,2.6,3.7c-0.3,1.7-2,2.9-3.7,2.6
				C837.7,301.4,836.5,299.7,836.8,298C836.8,298,836.8,298,836.8,298z"/>
			<rect id="Rectangle_3930" x="822.9" y="552" class="st13" width="16.7" height="1.3"/>
			
				<rect id="Rectangle_3931" x="779.1" y="540.4" transform="matrix(0.3559 -0.9345 0.9345 0.3559 -11.1367 1082.5551)" class="st13" width="1.4" height="17.9"/>
			<path id="Path_7413" class="st16" d="M815.2,383.1c0,0,16.6-9.5,25.3-25.4"/>
		</g>
	</g>
	<path id="Rectangle_3932" class="st6" d="M958.8,525.6h20.7c5.7,0,10.3,4.6,10.3,10.3l0,0c0,5.7-4.6,10.3-10.3,10.3h-20.7
		c-5.7,0-10.3-4.6-10.3-10.3l0,0C948.5,530.2,953.1,525.6,958.8,525.6z"/>
	<path id="Path_7414" class="st17" d="M871.2,318.8v70.5l182.7-182.7h-70.5L871.2,318.8z"/>
	<path id="Path_7415" class="st18" d="M1067.3,246.3L871.2,442.3v76.9h28.4l167.6-167.6V246.3z"/>
	<g id="Group_3743">
		<path id="Path_7416" class="st19" d="M907.5,516.4l9.3-8.5l9.3,8.5l9.3-8.5l9.3,8.5l9.3-8.5l9.3,8.5l9.3-8.5l9.3,8.5l9.3-8.5
			l9.3,8.5l9.3-8.5l9.3,8.5l9.3-8.5l7.8,7.1V324.2l-128.8-11.8L907.5,516.4z"/>
		<path id="Path_7417" class="st20" d="M1032.4,312.4H906.8c3.1,0,5.5,2.5,5.5,5.5l-0.2,189.2l9-8.2l9,8.2l9-8.2l9,8.2l9-8.2l9,8.2
			l9-8.2l9,8.2l9-8.2l9,8.2l9-8.2l9,8.2l9-8.2l9,8.2V317.9C1037.9,314.8,1035.4,312.4,1032.4,312.4
			C1032.4,312.4,1032.4,312.4,1032.4,312.4z"/>
		<path id="Rectangle_3933" class="st21" d="M919.1,316.8h49.3c0.6,0,1.1,0.5,1.1,1.1v2.2c0,0.6-0.5,1.1-1.1,1.1h-49.3
			c-0.6,0-1.1-0.5-1.1-1.1v-2.2C918,317.3,918.5,316.8,919.1,316.8z"/>
		<path id="Rectangle_3934" class="st21" d="M919.1,330.9H965c0.6,0,1.1,0.5,1.1,1.1v2.2c0,0.6-0.5,1.1-1.1,1.1h-45.8
			c-0.6,0-1.1-0.5-1.1-1.1V332C918,331.4,918.5,330.9,919.1,330.9z"/>
		<path id="Rectangle_3935" class="st21" d="M919.1,345H965c0.6,0,1.1,0.5,1.1,1.1v2.2c0,0.6-0.5,1.1-1.1,1.1h-45.8
			c-0.6,0-1.1-0.5-1.1-1.1v-2.2C918,345.5,918.5,345,919.1,345z"/>
		<path id="Rectangle_3936" class="st21" d="M919.1,359.1H972c0.6,0,1.1,0.5,1.1,1.1v2.2c0,0.6-0.5,1.1-1.1,1.1h-52.9
			c-0.6,0-1.1-0.5-1.1-1.1v-2.2C918,359.6,918.5,359.1,919.1,359.1z"/>
		<path id="Rectangle_3937" class="st21" d="M919.1,373.2H972c0.6,0,1.1,0.5,1.1,1.1v2.2c0,0.6-0.5,1.1-1.1,1.1h-52.9
			c-0.6,0-1.1-0.5-1.1-1.1v-2.2C918,373.7,918.5,373.2,919.1,373.2z"/>
		<path id="Rectangle_3938" class="st21" d="M919.1,387.3h42c0.6,0,1.1,0.5,1.1,1.1v2.2c0,0.6-0.5,1.1-1.1,1.1h-42
			c-0.6,0-1.1-0.5-1.1-1.1v-2.2C918,387.8,918.5,387.3,919.1,387.3z"/>
		<path id="Rectangle_3939" class="st21" d="M919.1,401.4h56.3c0.6,0,1.1,0.5,1.1,1.1v2.2c0,0.6-0.5,1.1-1.1,1.1h-56.3
			c-0.6,0-1.1-0.5-1.1-1.1v-2.2C918,401.9,918.5,401.4,919.1,401.4z"/>
		<path id="Rectangle_3940" class="st21" d="M919.1,415.5h51.7c0.6,0,1.1,0.5,1.1,1.1v2.2c0,0.6-0.5,1.1-1.1,1.1h-51.7
			c-0.6,0-1.1-0.5-1.1-1.1v-2.2C918,416,918.5,415.5,919.1,415.5z"/>
		<path id="Rectangle_3941" class="st21" d="M919.1,429.6h56.3c0.6,0,1.1,0.5,1.1,1.1v2.2c0,0.6-0.5,1.1-1.1,1.1h-56.3
			c-0.6,0-1.1-0.5-1.1-1.1v-2.2C918,430.1,918.5,429.6,919.1,429.6z"/>
		<path id="Rectangle_3942" class="st21" d="M1000.5,316.8h28c0.6,0,1.1,0.5,1.1,1.1v2.2c0,0.6-0.5,1.1-1.1,1.1h-28
			c-0.6,0-1.1-0.5-1.1-1.1v-2.2C999.4,317.3,999.9,316.8,1000.5,316.8z"/>
		<path id="Rectangle_3943" class="st21" d="M1000.5,330.9h28c0.6,0,1.1,0.5,1.1,1.1v2.2c0,0.6-0.5,1.1-1.1,1.1h-28
			c-0.6,0-1.1-0.5-1.1-1.1V332C999.4,331.4,999.9,330.9,1000.5,330.9z"/>
		<path id="Rectangle_3944" class="st21" d="M1000.5,345h28c0.6,0,1.1,0.5,1.1,1.1v2.2c0,0.6-0.5,1.1-1.1,1.1h-28
			c-0.6,0-1.1-0.5-1.1-1.1v-2.2C999.4,345.5,999.9,345,1000.5,345z"/>
		<path id="Rectangle_3945" class="st21" d="M1000.5,359.1h28c0.6,0,1.1,0.5,1.1,1.1v2.2c0,0.6-0.5,1.1-1.1,1.1h-28
			c-0.6,0-1.1-0.5-1.1-1.1v-2.2C999.4,359.6,999.9,359.1,1000.5,359.1z"/>
		<path id="Rectangle_3946" class="st21" d="M1000.5,373.2h28c0.6,0,1.1,0.5,1.1,1.1v2.2c0,0.6-0.5,1.1-1.1,1.1h-28
			c-0.6,0-1.1-0.5-1.1-1.1v-2.2C999.4,373.7,999.9,373.2,1000.5,373.2z"/>
		<path id="Rectangle_3947" class="st21" d="M1000.5,387.3h28c0.6,0,1.1,0.5,1.1,1.1v2.2c0,0.6-0.5,1.1-1.1,1.1h-28
			c-0.6,0-1.1-0.5-1.1-1.1v-2.2C999.4,387.8,999.9,387.3,1000.5,387.3z"/>
		<path id="Rectangle_3948" class="st21" d="M1000.5,401.4h28c0.6,0,1.1,0.5,1.1,1.1v2.2c0,0.6-0.5,1.1-1.1,1.1h-28
			c-0.6,0-1.1-0.5-1.1-1.1v-2.2C999.4,401.9,999.9,401.4,1000.5,401.4z"/>
		<path id="Rectangle_3949" class="st21" d="M1000.5,415.5h28c0.6,0,1.1,0.5,1.1,1.1v2.2c0,0.6-0.5,1.1-1.1,1.1h-28
			c-0.6,0-1.1-0.5-1.1-1.1v-2.2C999.4,416,999.9,415.5,1000.5,415.5z"/>
		<path id="Rectangle_3950" class="st21" d="M1000.5,429.6h28c0.6,0,1.1,0.5,1.1,1.1v2.2c0,0.6-0.5,1.1-1.1,1.1h-28
			c-0.6,0-1.1-0.5-1.1-1.1v-2.2C999.4,430.1,999.9,429.6,1000.5,429.6z"/>
		<path id="Rectangle_3951" class="st22" d="M1000.5,460.4h28c0.6,0,1.1,0.5,1.1,1.1v2.2c0,0.6-0.5,1.1-1.1,1.1h-28
			c-0.6,0-1.1-0.5-1.1-1.1v-2.2C999.4,460.9,999.9,460.4,1000.5,460.4z"/>
	</g>
	<line id="Line_270" class="st23" x1="905.9" y1="310.5" x2="1037.1" y2="310.5"/>
	<g id="Group_3770">
		<g id="Group_3769">
			<g id="Group_3758">
				<path id="Path_7428" class="st2" d="M940.2,464.2h-11.6c-1,0-1.8-0.8-1.8-1.8l0,0v-11.6c0-1,0.8-1.8,1.8-1.8l0,0h11.6
					c1,0,1.8,0.8,1.8,1.8l0,0v11.6C942.1,463.3,941.2,464.2,940.2,464.2C940.2,464.2,940.2,464.2,940.2,464.2z M930.5,460.5h7.9
					v-7.9h-7.9L930.5,460.5z"/>
			</g>
			<g id="Group_3759">
				<path id="Path_7429" class="st2" d="M963.2,464.2h-11.6c-1,0-1.8-0.8-1.8-1.8l0,0v-11.6c0-1,0.8-1.8,1.8-1.8l0,0h11.6
					c1,0,1.8,0.8,1.8,1.8v11.6C965,463.3,964.2,464.2,963.2,464.2z M953.4,460.5h7.9v-7.9h-7.9V460.5z"/>
			</g>
			<g id="Group_3760">
				<path id="Path_7430" class="st2" d="M940.2,487.3h-11.6c-1,0-1.8-0.8-1.8-1.8l0,0v-11.6c0-1,0.8-1.8,1.8-1.8l0,0h11.6
					c1,0,1.8,0.8,1.8,1.8l0,0v11.6C942.1,486.5,941.2,487.3,940.2,487.3L940.2,487.3z M930.5,483.7h7.9v-7.9h-7.9L930.5,483.7z"/>
			</g>
			<g id="Group_3761">
				<path id="Rectangle_4072" class="st2" d="M958.7,480.1h2c0.4,0,0.8,0.4,0.8,0.8v2c0,0.4-0.4,0.8-0.8,0.8h-2
					c-0.4,0-0.8-0.4-0.8-0.8v-2C957.9,480.5,958.2,480.1,958.7,480.1z"/>
			</g>
			<g id="Group_3762">
				<path id="Rectangle_4073" class="st2" d="M955.1,483.7h2c0.4,0,0.8,0.4,0.8,0.8v2c0,0.4-0.4,0.8-0.8,0.8h-2
					c-0.4,0-0.8-0.4-0.8-0.8v-2C954.3,484.1,954.6,483.7,955.1,483.7z"/>
			</g>
			<g id="Group_3763">
				<path id="Rectangle_4074" class="st2" d="M951.5,480.1h2c0.4,0,0.8,0.4,0.8,0.8v2c0,0.4-0.4,0.8-0.8,0.8h-2
					c-0.4,0-0.8-0.4-0.8-0.8v-2C950.7,480.5,951.1,480.1,951.5,480.1z"/>
			</g>
			<g id="Group_3764">
				<path id="Rectangle_4075" class="st2" d="M962.2,483.7h2c0.4,0,0.8,0.4,0.8,0.8v2c0,0.4-0.4,0.8-0.8,0.8h-2
					c-0.4,0-0.8-0.4-0.8-0.8v-2C961.4,484.1,961.8,483.7,962.2,483.7z"/>
			</g>
			<g id="Group_3765">
				<path id="Rectangle_4076" class="st2" d="M958.7,473h2c0.4,0,0.8,0.4,0.8,0.8v2c0,0.4-0.4,0.8-0.8,0.8h-2
					c-0.4,0-0.8-0.4-0.8-0.8v-2C957.9,473.4,958.2,473,958.7,473z"/>
			</g>
			<g id="Group_3766">
				<path id="Rectangle_4077" class="st2" d="M933.6,477.9h1.7c0.5,0,0.9,0.4,0.9,0.9v1.7c0,0.5-0.4,0.9-0.9,0.9h-1.7
					c-0.5,0-0.9-0.4-0.9-0.9v-1.7C932.7,478.3,933.1,477.9,933.6,477.9z"/>
			</g>
			<g id="Group_3767">
				<path id="Rectangle_4078" class="st2" d="M933.6,454.8h1.7c0.5,0,0.9,0.4,0.9,0.9v1.7c0,0.5-0.4,0.9-0.9,0.9h-1.7
					c-0.5,0-0.9-0.4-0.9-0.9v-1.7C932.7,455.2,933.1,454.8,933.6,454.8z"/>
			</g>
			<g id="Group_3768">
				<path id="Rectangle_4079" class="st2" d="M956.5,454.8h1.7c0.5,0,0.9,0.4,0.9,0.9v1.7c0,0.5-0.4,0.9-0.9,0.9h-1.7
					c-0.5,0-0.9-0.4-0.9-0.9v-1.7C955.6,455.2,956,454.8,956.5,454.8z"/>
			</g>
		</g>
	</g>
	<g class="st24">
		<path class="st2" d="M924.2,235.9v4h-1.8v-10.9h3.3c1.3,0,2.2,0.3,2.9,0.9c0.7,0.6,1,1.4,1,2.5c0,1.1-0.4,1.9-1.1,2.6
			c-0.7,0.7-1.7,1-2.9,1H924.2z M924.2,230.4v4h1.2c0.8,0,1.4-0.2,1.8-0.5c0.4-0.4,0.6-0.9,0.6-1.5c0-1.3-0.7-1.9-2.2-1.9H924.2z"/>
		<path class="st2" d="M936.9,239.9h-1.7v-1.2h0c-0.5,0.9-1.3,1.4-2.4,1.4c-0.8,0-1.4-0.2-1.8-0.6c-0.4-0.4-0.7-1-0.7-1.7
			c0-1.5,0.8-2.3,2.5-2.6l2.3-0.3c0-1.1-0.5-1.7-1.6-1.7c-0.9,0-1.8,0.3-2.5,1v-1.5c0.8-0.5,1.8-0.7,2.9-0.7c2,0,3,1,3,2.9V239.9z
			 M935.1,236l-1.6,0.2c-0.5,0.1-0.9,0.2-1.1,0.4s-0.4,0.5-0.4,0.9c0,0.3,0.1,0.6,0.4,0.8c0.2,0.2,0.6,0.3,0.9,0.3
			c0.5,0,1-0.2,1.3-0.6c0.4-0.4,0.5-0.9,0.5-1.4V236z"/>
		<path class="st2" d="M945.8,232l-3.5,9.1c-0.7,1.6-1.8,2.4-3.1,2.4c-0.4,0-0.7,0-0.9-0.1V242c0.3,0.1,0.5,0.1,0.8,0.1
			c0.7,0,1.2-0.3,1.5-1l0.5-1.3l-3.1-7.8h2l1.9,5.7c0,0.1,0.1,0.3,0.1,0.6h0c0-0.1,0.1-0.3,0.1-0.5l2-5.7H945.8z"/>
		<path class="st2" d="M958.6,239.9h-1.8v-4.3c0-0.8-0.1-1.4-0.3-1.8s-0.6-0.5-1.2-0.5c-0.5,0-0.9,0.2-1.2,0.7
			c-0.3,0.5-0.5,1-0.5,1.7v4.2h-1.8v-4.4c0-1.5-0.5-2.2-1.5-2.2c-0.5,0-0.9,0.2-1.2,0.7s-0.5,1-0.5,1.7v4.2H947V232h1.8v1.2h0
			c0.6-0.9,1.4-1.4,2.5-1.4c0.5,0,1,0.1,1.4,0.4c0.4,0.3,0.7,0.7,0.8,1.2c0.6-1.1,1.4-1.6,2.6-1.6c1.7,0,2.6,1.1,2.6,3.2V239.9z"/>
		<path class="st2" d="M967.4,236.4h-5.3c0,0.7,0.2,1.3,0.7,1.7c0.4,0.4,1,0.6,1.8,0.6c0.8,0,1.6-0.2,2.3-0.7v1.4
			c-0.7,0.4-1.7,0.7-2.8,0.7c-1.2,0-2.1-0.4-2.7-1.1c-0.7-0.7-1-1.7-1-3c0-1.2,0.4-2.2,1.1-3c0.7-0.8,1.6-1.1,2.7-1.1s1.9,0.3,2.5,1
			c0.6,0.7,0.9,1.6,0.9,2.9V236.4z M965.7,235.2c0-0.6-0.2-1.1-0.5-1.5s-0.7-0.5-1.2-0.5c-0.5,0-0.9,0.2-1.3,0.6
			c-0.4,0.4-0.6,0.9-0.7,1.5H965.7z"/>
		<path class="st2" d="M976,239.9h-1.8v-4.4c0-1.5-0.5-2.2-1.5-2.2c-0.5,0-1,0.2-1.3,0.6c-0.4,0.4-0.5,0.9-0.5,1.5v4.5h-1.8V232h1.8
			v1.3h0c0.6-1,1.4-1.5,2.5-1.5c0.8,0,1.5,0.3,1.9,0.8s0.7,1.3,0.7,2.4V239.9z"/>
		<path class="st2" d="M982.3,239.8c-0.3,0.2-0.8,0.3-1.4,0.3c-1.5,0-2.3-0.7-2.3-2.2v-4.4h-1.3V232h1.3v-1.8l1.8-0.5v2.3h1.9v1.4
			h-1.9v3.9c0,0.5,0.1,0.8,0.3,1s0.4,0.3,0.8,0.3c0.3,0,0.6-0.1,0.8-0.3V239.8z"/>
		<path class="st2" d="M989.9,238.7L989.9,238.7l0,4.7h-1.8V232h1.8v1.4h0c0.6-1,1.5-1.6,2.7-1.6c1,0,1.8,0.3,2.3,1
			c0.6,0.7,0.8,1.6,0.8,2.8c0,1.3-0.3,2.3-0.9,3.1s-1.5,1.2-2.6,1.2C991.3,240,990.5,239.6,989.9,238.7z M989.9,235.6v1
			c0,0.6,0.2,1.1,0.5,1.4s0.8,0.6,1.4,0.6c0.7,0,1.2-0.3,1.5-0.8c0.4-0.5,0.6-1.2,0.6-2.1c0-0.8-0.2-1.4-0.5-1.8
			c-0.3-0.4-0.8-0.7-1.4-0.7c-0.6,0-1.1,0.2-1.5,0.7S989.9,235,989.9,235.6z"/>
		<path class="st2" d="M1003.4,239.9h-1.7v-1.2h0c-0.5,0.9-1.3,1.4-2.4,1.4c-0.8,0-1.4-0.2-1.8-0.6c-0.4-0.4-0.7-1-0.7-1.7
			c0-1.5,0.8-2.3,2.5-2.6l2.3-0.3c0-1.1-0.5-1.7-1.6-1.7c-0.9,0-1.8,0.3-2.5,1v-1.5c0.8-0.5,1.8-0.7,2.9-0.7c2,0,3,1,3,2.9V239.9z
			 M1001.7,236l-1.6,0.2c-0.5,0.1-0.9,0.2-1.1,0.4s-0.4,0.5-0.4,0.9c0,0.3,0.1,0.6,0.4,0.8c0.2,0.2,0.6,0.3,1,0.3
			c0.5,0,1-0.2,1.3-0.6s0.5-0.9,0.5-1.4V236z"/>
		<path class="st2" d="M1012.6,239.2c0,2.9-1.4,4.3-4.3,4.3c-1,0-1.9-0.2-2.7-0.5v-1.6c0.9,0.5,1.7,0.7,2.4,0.7
			c1.9,0,2.8-0.9,2.8-2.7v-0.9h0c-0.6,1-1.5,1.5-2.6,1.5c-1,0-1.7-0.3-2.3-1s-0.9-1.6-0.9-2.8c0-1.3,0.3-2.4,0.9-3.2
			c0.6-0.8,1.5-1.2,2.6-1.2c1,0,1.8,0.4,2.3,1.3h0V232h1.8V239.2z M1010.9,236.3v-1c0-0.5-0.2-1-0.5-1.4c-0.4-0.4-0.8-0.6-1.4-0.6
			c-0.7,0-1.2,0.2-1.6,0.7c-0.4,0.5-0.6,1.2-0.6,2.1c0,0.8,0.2,1.4,0.5,1.8c0.4,0.5,0.8,0.7,1.4,0.7c0.6,0,1.1-0.2,1.5-0.7
			C1010.7,237.5,1010.9,237,1010.9,236.3z"/>
		<path class="st2" d="M1021.6,236.4h-5.3c0,0.7,0.2,1.3,0.7,1.7s1,0.6,1.8,0.6c0.8,0,1.6-0.2,2.3-0.7v1.4c-0.7,0.4-1.7,0.7-2.8,0.7
			c-1.1,0-2.1-0.4-2.7-1.1c-0.7-0.7-1-1.7-1-3c0-1.2,0.4-2.2,1.1-3s1.6-1.1,2.7-1.1c1.1,0,1.9,0.3,2.5,1c0.6,0.7,0.9,1.6,0.9,2.9
			V236.4z M1019.9,235.2c0-0.6-0.2-1.1-0.5-1.5s-0.7-0.5-1.2-0.5c-0.5,0-0.9,0.2-1.3,0.6c-0.4,0.4-0.6,0.9-0.7,1.5H1019.9z"/>
	</g>
	<g id="Rectangle_4082" transform="translate(886.243 279.665)">
		<path class="st6" d="M-0.8-19h166.6c1.9,0,3.5,1.6,3.5,3.5V7.1c0,1.9-1.6,3.5-3.5,3.5H-0.8c-1.9,0-3.5-1.6-3.5-3.5v-22.6
			C-4.3-17.4-2.7-19-0.8-19z"/>
		<path class="st25" d="M-0.8-19.4h166.6c2.2,0,3.9,1.7,3.9,3.9V7.1c0,2.2-1.7,3.9-3.9,3.9H-0.8C-3,11-4.7,9.2-4.7,7.1v-22.6
			C-4.7-17.7-3-19.4-0.8-19.4z"/>
	</g>
	<path id="Rectangle_4083" class="st21" d="M894.4,271h127.9c0.6,0,1.1,0.5,1.1,1.1v6.6c0,0.6-0.5,1.1-1.1,1.1H894.4
		c-0.6,0-1.1-0.5-1.1-1.1v-6.6C893.3,271.5,893.8,271,894.4,271z"/>
	<path id="Path_7435" class="st26" d="M732.7,190.6h93.7c3.4,0,6.1,2.7,6.1,6.1l0,0v46c0,3.4-2.7,6.1-6.1,6.1h-16.2v18.9l-14-18.9
		h-63.5c-3.4,0-6.1-2.7-6.1-6.1v-46C726.6,193.3,729.3,190.6,732.7,190.6z"/>
	<path id="Path_7434" class="st27" d="M730.1,187.8h93.7c3.4,0,6.1,2.7,6.1,6.1l0,0v46c0,3.4-2.7,6.1-6.1,6.1h-16.2v18.9l-14-18.9
		h-63.5c-3.4,0-6.1-2.7-6.1-6.1v-46C724,190.5,726.7,187.8,730.1,187.8z"/>
	<path id="Rectangle_4084" class="st28" d="M735.4,202.5h83.2c0.6,0,1.1,0.5,1.1,1.1v2.2c0,0.6-0.5,1.1-1.1,1.1h-83.2
		c-0.6,0-1.1-0.5-1.1-1.1v-2.2C734.2,203,734.7,202.5,735.4,202.5z"/>
	<path id="Rectangle_4085" class="st28" d="M735.4,213.7h83.2c0.6,0,1.1,0.5,1.1,1.1v2.2c0,0.6-0.5,1.1-1.1,1.1h-83.2
		c-0.6,0-1.1-0.5-1.1-1.1v-2.2C734.2,214.2,734.7,213.7,735.4,213.7z"/>
	<path id="Rectangle_4086" class="st28" d="M735.4,225h46.7c0.6,0,1.1,0.5,1.1,1.1v2.2c0,0.6-0.5,1.1-1.1,1.1h-46.7
		c-0.6,0-1.1-0.5-1.1-1.1v-2.2C734.2,225.5,734.7,225,735.4,225z"/>
</g>
<g id="_1con" transform="translate(366.508 153.732)">
	<path id="Path_7431" class="st29" d="M-20.4-9.7c0,0.1-0.1,0.2-0.2,0.2c0,0,0,0,0,0h-6.6c-0.1,0-0.2-0.1-0.2-0.2c0,0,0,0,0,0v-8.9
		c0-0.1,0.1-0.2,0.2-0.2c0,0,0,0,0,0h1.7v0.4h-1.5v8.5h6.2v-1.5h0.4V-9.7L-20.4-9.7z"/>
	<path id="Path_7432" class="st29" d="M-25.8-11.2c0,0.1,0.1,0.2,0.2,0.2c0,0,0,0,0,0h6.6c0.1,0,0.2-0.1,0.2-0.2c0,0,0,0,0,0v-7.1
		c0-0.1,0-0.1-0.1-0.1l-1.8-1.8c0,0-0.1-0.1-0.1-0.1h-4.8c-0.1,0-0.2,0.1-0.2,0.2c0,0,0,0,0,0L-25.8-11.2L-25.8-11.2z M-19.2-11.4
		h-6.2v-8.5h4.2v1.7c0,0.1,0.1,0.2,0.2,0.2l0,0h1.7L-19.2-11.4L-19.2-11.4z M-19.4-18.4h-1.4v-1.4L-19.4-18.4z"/>
	<path id="Path_7433" class="st29" d="M-20.2-16.4c0.1,0,0.2-0.1,0.2-0.2c0-0.1-0.1-0.2-0.2-0.2c0,0,0,0,0,0h-4.2
		c-0.1,0-0.2,0.1-0.2,0.2c0,0.1,0.1,0.2,0.2,0.2H-20.2z M-21.7-15.3c0.1,0,0.2-0.1,0.2-0.2c0-0.1-0.1-0.2-0.2-0.2h-2.7
		c-0.1,0-0.2,0.1-0.2,0.2c0,0.1,0.1,0.2,0.2,0.2H-21.7z M-20.9-14.1c0.1,0,0.2-0.1,0.2-0.2c0-0.1-0.1-0.2-0.2-0.2h-3.5
		c-0.1,0-0.2,0.1-0.2,0.2c0,0.1,0.1,0.2,0.2,0.2H-20.9z M-22.5-13c0.1,0,0.2-0.1,0.2-0.2c0-0.1-0.1-0.2-0.2-0.2c0,0,0,0,0,0h-1.9
		c-0.1,0-0.2,0.1-0.2,0.2c0,0.1,0.1,0.2,0.2,0.2c0,0,0,0,0,0H-22.5z"/>
</g>
</svg>
